<?xml version="1.0" standalone="no"?>
<!DOCTYPE svg PUBLIC "-//W3C//DTD SVG 20010904//EN"
 "http://www.w3.org/TR/2001/REC-SVG-20010904/DTD/svg10.dtd">
<svg version="1.0" xmlns="http://www.w3.org/2000/svg"
 width="750.000000pt" height="1000.000000pt" viewBox="0 0 750.000000 1000.000000"
 preserveAspectRatio="xMidYMid meet">

<g transform="translate(0.000000,1000.000000) scale(0.100000,-0.100000)"
fill="#000000" stroke="none">
<path d="M4915 8005 c-56 -16 -85 -44 -85 -84 0 -26 37 -232 42 -236 2 -1 85
-61 185 -134 117 -85 189 -131 202 -129 19 3 16 13 -33 163 -30 88 -51 162
-49 165 9 10 44 -50 98 -170 51 -115 56 -132 62 -221 4 -68 2 -98 -6 -103 -8
-5 -7 -11 4 -22 19 -20 19 -107 0 -324 -9 -91 -20 -226 -25 -300 -15 -209 -79
-891 -95 -1025 -55 -443 -128 -757 -287 -1235 -77 -229 -94 -269 -264 -610
-163 -328 -190 -377 -270 -480 -49 -64 -128 -167 -176 -230 -85 -112 -307
-336 -421 -426 -29 -22 -51 -44 -51 -50 4 -25 319 -138 528 -190 l139 -34 56
49 c54 48 233 229 299 304 44 50 198 252 245 321 21 31 44 56 50 56 7 0 60
-16 117 -36 230 -78 620 -174 703 -174 49 1 14 16 -68 29 -175 29 -638 156
-718 198 l-28 14 19 27 c68 98 202 357 286 555 158 370 349 1005 401 1335 5
30 12 42 23 42 26 0 391 -186 531 -270 68 -41 176 -111 240 -156 118 -82 159
-101 86 -37 -111 97 -388 261 -674 401 l-193 95 6 36 c28 167 55 412 101 916
42 458 46 544 35 725 -5 91 -13 181 -16 200 -6 30 -5 33 12 26 43 -16 233
-136 333 -211 99 -74 284 -248 345 -324 45 -57 42 -25 -4 34 -102 132 -353
340 -555 459 -55 33 -109 65 -121 72 -15 9 -24 31 -33 86 -44 247 -138 499
-207 555 -174 141 -236 184 -359 246 -106 54 -237 99 -320 110 -22 3 -62 -1
-90 -8z"/>
</g>
</svg>
